#N canvas 1025 178 450 300 10;
#X obj 74 59 env~;
#X obj 74 13 adc~;
#X floatatom 107 98 5 0 0 0 - - -;
#X obj 62 141 moses 70;
#X floatatom 86 202 5 0 0 0 - - -;
#X obj 86 180 + 155;
#X msg 62 163 0;
#X obj 75 252 OSCtx;
#X msg 209 187 connect localhost 8888;
#X obj 43 197 change;
#X msg 42 230 /wind \$1;
#X connect 0 0 2 0;
#X connect 0 0 3 0;
#X connect 1 0 0 0;
#X connect 3 0 6 0;
#X connect 3 1 5 0;
#X connect 4 0 9 0;
#X connect 5 0 4 0;
#X connect 6 0 9 0;
#X connect 8 0 7 0;
#X connect 9 0 10 0;
#X connect 10 0 7 0;
