#N canvas 1023 175 399 418 10;
#X obj -66 -10 cnv 15 115 350 empty empty empty 20 12 0 14 -233017
-66577 0;
#X obj 85 -9 cnv 15 210 200 empty empty empty 20 12 0 14 -233017 -66577
0;
#X obj -36 38 env~;
#X obj -36 -5 adc~;
#X obj -36 209 moses 70;
#X floatatom -12 270 5 0 0 0 - - -;
#X obj -12 248 + 155;
#X msg -36 231 0;
#X obj 65 300 OSCtx;
#X msg 150 135 connect localhost 8888;
#X obj -55 265 change;
#X msg -56 298 /wind \$1;
#X symbolatom 149 21 18 0 0 0 IP_address - -;
#X floatatom 149 41 5 0 0 0 Port - -;
#X obj 150 81 pack s 8888;
#X obj -22 59 - 100;
#X obj -21 82 vu 15 120 empty empty -1 -8 0 10 -66577 -1 1 0;
#X obj 65 280 r \$0-toOSC;
#X obj -56 320 s \$0-toOSC;
#X obj 150 157 s \$0-toOSC;
#X obj -67 -37 cnv 15 100 20 empty empty TeleChimes 20 12 0 14 -253693
-66577 0;
#X obj -60 74 vsl 15 128 0 1 0 0 empty empty Volume 0 -9 0 10 -262144
-1 -1 0 1;
#X obj -36 17 *~ 0.95;
#X connect 2 0 4 0;
#X connect 2 0 15 0;
#X connect 3 0 22 0;
#X connect 4 0 7 0;
#X connect 4 1 6 0;
#X connect 5 0 10 0;
#X connect 6 0 5 0;
#X connect 7 0 10 0;
#X connect 9 0 19 0;
#X connect 10 0 11 0;
#X connect 11 0 18 0;
#X connect 12 0 14 0;
#X connect 13 0 14 1;
#X connect 14 0 9 0;
#X connect 15 0 16 0;
#X connect 17 0 8 0;
#X connect 21 0 22 0;
#X connect 22 0 2 0;
